<?xml version="1.0" encoding="UTF-8" standalone="no"?>
<svg width="45px" height="38px" viewBox="0 0 45 38" version="1.1" xmlns="http://www.w3.org/2000/svg" xmlns:xlink="http://www.w3.org/1999/xlink" xmlns:sketch="http://www.bohemiancoding.com/sketch/ns">
    <!-- Generator: Sketch 3.2.1 (9971) - http://www.bohemiancoding.com/sketch -->
    <title>Fill-130 7</title>
    <desc>Created with Sketch.</desc>
    <defs></defs>
    <g id="Page-1" stroke="none" stroke-width="1" fill="none" fill-rule="evenodd" sketch:type="MSPage">
        <path d="M28.749,11.404 C28.394,11.617 28.277,12.077 28.49,12.433 C31.012,16.653 31.012,21.894 28.49,26.111 C28.277,26.467 28.394,26.928 28.749,27.14 C28.87,27.212 29.002,27.246 29.133,27.246 C29.388,27.246 29.637,27.116 29.777,26.881 C32.583,22.19 32.583,16.359 29.778,11.663 C29.565,11.308 29.104,11.192 28.749,11.404 L28.749,11.404 L28.749,11.404 Z M21.623,0.711 C20.919,0.711 20.146,1.071 19.387,1.753 L10.81,9.473 C10.406,9.837 10.002,10.301 9.607,10.853 L3.29,10.853 C1.485,10.853 0.016,12.326 0.016,14.136 L0.016,24.409 C0.016,26.213 1.485,27.681 3.29,27.681 L9.604,27.681 C9.997,28.237 10.401,28.703 10.81,29.069 L19.388,36.792 C20.146,37.473 20.919,37.833 21.622,37.833 C22.3,37.833 22.884,37.507 23.266,36.915 C23.6,36.397 23.769,35.701 23.769,34.844 L23.769,3.701 C23.769,1.496 22.66,0.711 21.623,0.711 L21.623,0.711 L21.623,0.711 Z M22.269,34.844 C22.269,35.583 22.104,35.949 22.006,36.102 C21.874,36.306 21.738,36.333 21.622,36.333 C21.472,36.333 21.051,36.269 20.391,35.676 L11.812,27.952 C11.418,27.601 11.02,27.118 10.628,26.521 C10.49,26.309 10.254,26.181 10.001,26.181 L3.29,26.181 C2.312,26.181 1.516,25.386 1.516,24.409 L1.516,14.136 C1.516,13.153 2.312,12.353 3.29,12.353 L10.001,12.353 C10.252,12.353 10.486,12.229 10.625,12.019 C11.023,11.421 11.423,10.939 11.814,10.588 L20.391,2.868 C21.051,2.274 21.472,2.211 21.623,2.211 C22.238,2.211 22.269,3.452 22.269,3.701 L22.269,34.844 L22.269,34.844 Z M34.345,8.528 C33.989,8.741 33.873,9.201 34.086,9.557 C37.67,15.551 37.67,22.995 34.086,28.985 C33.873,29.341 33.989,29.802 34.344,30.015 C34.465,30.087 34.598,30.121 34.729,30.121 C34.984,30.121 35.232,29.991 35.373,29.756 C39.241,23.29 39.241,15.256 35.373,8.787 C35.161,8.431 34.699,8.315 34.345,8.528 L34.345,8.528 L34.345,8.528 Z M39.672,2.746 C39.448,2.398 38.984,2.299 38.635,2.521 C38.287,2.745 38.186,3.21 38.41,3.558 C44.553,13.103 44.553,25.44 38.41,34.987 C38.186,35.335 38.287,35.8 38.635,36.023 C38.761,36.104 38.901,36.143 39.04,36.143 C39.287,36.143 39.528,36.021 39.672,35.799 C46.132,25.759 46.132,12.785 39.672,2.746 L39.672,2.746 L39.672,2.746 Z" id="Fill-130-7" fill="#5B5B58" sketch:type="MSShapeGroup"></path>
    </g>
</svg>