<?xml version="1.0" encoding="UTF-8" standalone="no"?>
<svg width="25px" height="25px" viewBox="0 0 25 25" version="1.1" xmlns="http://www.w3.org/2000/svg" xmlns:xlink="http://www.w3.org/1999/xlink" xmlns:sketch="http://www.bohemiancoding.com/sketch/ns">
    <!-- Generator: Sketch 3.2.1 (9971) - http://www.bohemiancoding.com/sketch -->
    <title>Fill 165</title>
    <desc>Created with Sketch.</desc>
    <defs></defs>
    <g id="Page-1" stroke="none" stroke-width="1" fill="none" fill-rule="evenodd" sketch:type="MSPage">
        <path d="M11.6204815,11.2036481 L14.5583233,8.61678005 L13.7863479,12.4541483 L15.2302588,13.2878151 L16.3273643,5.55305456 L10.1765706,10.3699813 L11.6204815,11.2036481 L11.6204815,11.2036481 Z M12.494998,23.3326664 C6.50843671,23.3326664 1.6573296,18.4815593 1.6573296,12.494998 C1.6573296,6.50927037 6.50843671,1.6573296 12.494998,1.6573296 C18.4815593,1.6573296 23.3326664,6.50927037 23.3326664,12.494998 C23.3326664,18.4815593 18.4815593,23.3326664 12.494998,23.3326664 L12.494998,23.3326664 Z M12.5,0 C5.59640523,0 0,5.5972389 0,12.5 C0,19.4035948 5.59640523,25 12.5,25 C19.4035948,25 25,19.4035948 25,12.5 C25,5.5972389 19.4035948,0 12.5,0 L12.5,0 Z M13.3286648,12.9118314 C13.3286648,12.2215553 12.7684407,11.6613312 12.0781646,11.6613312 C11.3878885,11.6613312 10.8276644,12.2215553 10.8276644,12.9118314 C10.8276644,13.6021075 11.3878885,14.1623316 12.0781646,14.1623316 C12.7684407,14.1623316 13.3286648,13.6021075 13.3286648,12.9118314 L13.3286648,12.9118314 Z M9.59800587,17.2068828 L10.3699813,13.3695145 L8.92607043,12.5358477 L7.82979859,20.2706082 L13.9797586,15.4536815 L12.5358477,14.6200147 L9.59800587,17.2068828 L9.59800587,17.2068828 Z" id="Fill-165" fill="#F2F2E9" sketch:type="MSShapeGroup"></path>
    </g>
</svg>